/* XPM */
static char *fdbb21ae6e33461f9db3abbb59f880912VeYMgL7CFI1iRuQ[] = {
/* columns rows colors chars-per-pixel */
"32 32 6 1 ",
"  c None",
". c #302C2E",
"X c #5A5353",
"o c #A0938E",
"O c #CFC6B8",
"+ c #DFF6F5",
/* pixels */
"               ..               ",
"              .++.              ",
"             .+OO+.             ",
"            .+OOOO+.            ",
"    .....   .OOOOOO.   .....    ",
"    .+++O..  ......  ..O+++.    ",
"    .+OOOOO..oooooo..OOOOO+.    ",
"    .+OOO..oooooooXoo..OOO+.    ",
"    .OOO.ooooooooooXooo.OOO.    ",
"     .O.oooooooooooXoooo.O.     ",
"     .O.oooooooooooXoooo.O.     ",
"      .oooooooooooXoooooo.      ",
"   .. .oXXXoooooooXoooooo. ..   ",
"  .+O.oXoooXXooooXoooooooo.O+.  ",
" .+OO.oooooooXo..ooooooooo.OO+. ",
".+OOO.oooooooo.XX.oooooooo.OOO+.",
".+OOO.oooooooo.XX.oooooooo.OOO+.",
" .+OO.ooooooooo..oXooooooo.OO+. ",
"  .+O.ooooooooXooooXXoooXo.O+.  ",
"   .. .ooooooXoooooooXXXo. ..   ",
"      .ooooooXooooooooooo.      ",
"     .O.ooooXooooooooooo.O.     ",
"     .O.ooooXooooooooooo.O.     ",
"    .OOO.oooXoooooooooo.OOO.    ",
"    .+OOO..ooXooooooo..OOO+.    ",
"    .+OOOOO..oooooo..OOOOO+.    ",
"    .+++O..  ......  ..O+++.    ",
"    .....   .OOOOOO.   .....    ",
"            .+OOOO+.            ",
"             .+OO+.             ",
"              .++.              ",
"               ..               "
};
